<svg xmlns="http://www.w3.org/2000/svg" width="24" height="24" viewBox="0 0 24 24"><path class="icon" fill="#657786" d="M21.78 11.47l-5.14-5.14c-.292-.292-.767-.292-1.06 0s-.293.77 0 1.062l3.858 3.858H8.918c-.415 0-.75.336-.75.75s.335.75.75.75h10.52l-3.857 3.858c-.29.293-.29.768 0 1.06.148.147.34.22.53.22s.386-.072.53-.22l5.14-5.138c.294-.293.294-.767 0-1.06z"/><path class="icon" fill="#657786" d="M9.944 20.5H4.292c-.437 0-.792-.355-.792-.792V4.292c0-.437.355-.792.792-.792h5.652c.414 0 .75-.336.75-.75S10.358 2 9.944 2H4.292C3.028 2 2 3.028 2 4.292v15.416C2 20.972 3.028 22 4.292 22h5.652c.414 0 .75-.336.75-.75s-.336-.75-.75-.75z"/></svg>